<?xml version="1.0" encoding="UTF-8"?> <svg xmlns="http://www.w3.org/2000/svg" xmlns:xlink="http://www.w3.org/1999/xlink" width="476px" height="340px"><path fill-rule="evenodd" stroke="rgb(255, 255, 255)" stroke-width="0px" stroke-linecap="butt" stroke-linejoin="miter" fill="rgb(47, 51, 89)" d="M445.63,268.62 L133.449,268.62 L184.497,217.133 L445.63,217.133 C459.135,217.133 470.541,228.533 470.541,242.597 C470.541,256.661 459.135,268.62 445.63,268.62 ZM445.63,196.473 L205.205,196.473 L256.252,145.544 L445.63,145.544 C459.135,145.544 470.541,156.944 470.541,171.8 C470.541,185.72 459.135,196.473 445.63,196.473 ZM445.63,124.643 L277.201,124.643 L328.249,73.714 L445.63,73.714 C459.135,73.714 470.541,85.115 470.541,99.179 C470.541,113.243 459.135,124.643 445.63,124.643 ZM112.500,288.962 L445.63,288.962 C459.135,288.962 470.541,300.363 470.541,314.426 C470.541,328.490 459.135,339.891 445.63,339.891 L61.452,339.891 L112.500,288.962 Z"></path><path fill-rule="evenodd" stroke="rgb(255, 255, 255)" stroke-width="0px" stroke-linecap="butt" stroke-linejoin="miter" fill="rgb(82, 144, 69)" d="M450.154,52.141 L321.718,52.141 L43.397,332.392 C33.470,342.388 17.376,342.388 7.449,332.392 C-2.477,322.396 -2.477,306.190 7.449,296.195 L300.660,0.951 L356.7,0.951 L378.213,0.951 L450.154,0.951 C464.192,0.951 475.573,12.410 475.573,26.546 C475.573,40.682 464.192,52.141 450.154,52.141 Z"></path><path fill-rule="evenodd" fill="rgb(254, 254, 254)" d="M432.790,329.148 L432.790,325.725 C431.663,327.131 430.526,328.133 429.379,328.730 C428.232,329.327 426.824,329.625 425.153,329.625 C422.926,329.625 421.179,328.959 419.913,327.626 C418.647,326.292 418.14,324.240 418.14,321.467 L418.14,308.17 L426.148,308.17 L426.148,319.637 C426.148,320.963 426.393,321.905 426.883,322.462 C427.374,323.19 428.63,323.298 428.952,323.298 C429.919,323.298 430.712,322.927 431.328,322.184 C431.945,321.441 432.253,320.108 432.253,318.184 L432.253,308.17 L440.347,308.17 L440.347,329.148 L432.790,329.148 ZM384.480,148.60 L417.617,148.60 L417.617,157.890 L396.872,157.890 L396.872,165.208 L416.116,165.208 L416.116,174.598 L396.872,174.598 L396.872,183.675 L418.217,183.675 L418.217,194.101 L384.480,194.101 L384.480,148.60 ZM362.670,194.101 L354.233,175.167 L347.845,182.866 L347.845,194.101 L335.480,194.101 L335.480,148.60 L347.845,148.60 L347.845,165.459 L360.797,148.60 L377.242,148.60 L362.640,165.438 L377.897,194.101 L362.670,194.101 ZM331.23,329.148 L322.890,329.148 L322.890,318.647 L320.145,320.472 L320.145,316.573 L322.890,314.747 L322.890,299.978 L331.23,299.978 L331.23,309.338 L333.728,307.539 L333.728,311.439 L331.23,313.238 L331.23,329.148 ZM317.64,192.13 C314.89,193.929 310.381,194.887 305.941,194.887 C301.428,194.887 297.693,194.60 294.737,192.406 C291.779,190.752 289.382,188.134 287.544,184.554 C285.706,180.974 284.787,176.493 284.787,171.112 C284.787,163.596 286.607,157.744 290.246,153.556 C293.886,149.368 298.954,147.275 305.450,147.275 C312.110,147.275 317.242,149.332 320.845,153.446 C324.448,157.560 326.250,163.323 326.250,170.735 C326.250,176.116 325.462,180.529 323.888,183.973 C322.314,187.417 320.40,190.97 317.64,192.13 ZM311.605,161.46 C310.86,159.47 308.25,158.47 305.423,158.47 C302.930,158.47 300.928,159.63 299.418,161.93 C297.907,163.124 297.152,166.485 297.152,171.175 C297.152,175.823 297.903,179.163 299.404,181.193 C300.905,183.225 302.948,184.240 305.532,184.240 C308.189,184.240 310.245,183.246 311.701,181.256 C313.157,179.267 313.885,175.697 313.885,170.547 C313.885,166.213 313.125,163.46 311.605,161.46 ZM290.143,318.523 C290.143,321.773 289.66,324.435 286.912,326.511 C284.757,328.587 281.777,329.625 277.973,329.625 C274.578,329.625 271.834,328.763 269.739,327.39 C267.167,324.903 265.881,322.104 265.881,318.642 C265.881,315.419 266.968,312.762 269.143,310.673 C271.317,308.584 274.254,307.539 277.953,307.539 C282.182,307.539 285.377,308.766 287.538,311.220 C289.275,313.197 290.143,315.631 290.143,318.523 ZM280.876,314.454 C280.120,313.558 279.186,313.110 278.72,313.110 C276.892,313.110 275.917,313.565 275.149,314.473 C274.380,315.382 273.995,316.765 273.995,318.622 C273.995,320.506 274.376,321.899 275.139,322.800 C275.901,323.703 276.859,324.153 278.12,324.153 C279.179,324.153 280.137,323.709 280.886,322.820 C281.635,321.932 282.10,320.506 282.10,318.542 C282.10,316.712 281.632,315.349 280.876,314.454 ZM259.382,313.827 C258.321,313.827 257.499,314.265 256.916,315.140 C256.81,316.374 255.663,318.682 255.663,322.64 L255.663,329.148 L247.529,329.148 L247.529,308.17 L255.106,308.17 L255.106,311.479 C255.835,309.980 256.588,308.949 257.363,308.385 C258.139,307.821 259.97,307.539 260.237,307.539 C261.430,307.539 262.736,307.911 264.155,308.654 L261.649,314.424 C260.695,314.26 259.939,313.827 259.382,313.827 ZM229.90,329.148 L223.977,310.783 L218.884,329.148 L210.49,329.148 L203.563,299.978 L212.120,299.978 L215.200,316.308 L219.709,299.978 L228.235,299.978 L232.755,316.286 L235.839,299.978 L244.351,299.978 L237.925,329.148 L229.90,329.148 ZM172.169,323.497 C172.951,324.412 173.972,324.870 175.232,324.870 C176.27,324.870 176.783,324.671 177.499,324.273 C177.936,324.21 178.407,323.576 178.911,322.940 L186.885,323.676 C185.665,325.798 184.194,327.321 182.471,328.242 C180.747,329.164 178.274,329.625 175.53,329.625 C172.255,329.625 170.54,329.230 168.450,328.441 C166.846,327.652 165.517,326.399 164.463,324.681 C163.409,322.963 162.882,320.943 162.882,318.622 C162.882,315.319 163.939,312.646 166.54,310.603 C168.168,308.561 171.88,307.539 174.814,307.539 C177.837,307.539 180.223,307.997 181.973,308.912 C183.723,309.827 185.56,311.154 185.971,312.892 C186.885,314.630 187.343,316.891 187.343,319.677 L187.343,320.592 L171.115,320.592 C171.261,321.892 171.612,322.860 172.169,323.497 ZM179.110,316.712 C178.951,315.147 178.530,314.26 177.847,313.349 C177.164,312.673 176.266,312.334 175.152,312.334 C173.866,312.334 172.838,312.845 172.70,313.867 C171.579,314.503 171.267,315.452 171.135,316.712 L179.110,316.712 ZM146.332,329.148 L142.54,316.433 L137.920,329.148 L130.685,329.148 L122.853,308.17 L130.680,308.17 L134.66,321.321 L138.350,308.17 L145.665,308.17 L150.131,321.354 L153.537,308.17 L161.315,308.17 L153.535,329.148 L146.332,329.148 ZM297.100,310.392 C298.41,309.550 299.9,308.924 300.4,308.513 C301.581,307.864 303.603,307.539 306.69,307.539 C309.516,307.539 312.144,308.156 313.954,309.390 C315.764,310.623 317.33,312.427 317.763,314.802 L310.146,315.816 C309.907,314.915 309.473,314.235 308.843,313.777 C308.213,313.319 307.368,313.91 306.308,313.91 C304.968,313.91 303.885,313.571 303.56,314.531 C302.227,315.491 301.813,316.944 301.813,318.890 C301.813,320.625 302.224,321.942 303.46,322.843 C303.868,323.743 304.916,324.193 306.188,324.193 C307.249,324.193 308.140,323.922 308.863,323.377 C309.586,322.834 310.126,321.998 310.484,320.870 L318.180,321.746 C317.756,323.351 317.60,324.740 316.92,325.914 C315.124,327.88 313.888,328.0 312.383,328.650 C310.878,329.300 308.966,329.625 306.646,329.625 C304.405,329.625 302.539,329.416 301.48,328.999 C299.556,328.582 298.273,327.906 297.200,326.971 C296.126,326.37 295.284,324.941 294.674,323.681 C294.64,322.422 293.759,320.753 293.759,318.672 C293.759,316.498 294.130,314.689 294.873,313.244 C295.416,312.184 296.159,311.234 297.100,310.392 ZM342.475,317.289 C345.510,316.679 347.479,316.251 348.381,316.6 C349.282,315.760 350.237,315.438 351.245,315.41 C351.245,314.46 351.39,313.349 350.628,312.951 C350.217,312.553 349.495,312.354 348.461,312.354 C347.135,312.354 346.140,312.567 345.478,312.991 C344.960,313.323 344.543,313.946 344.225,314.861 L336.489,314.46 C336.780,312.693 337.201,311.628 337.751,310.852 C338.301,310.76 339.94,309.403 340.128,308.833 C340.870,308.422 341.891,308.103 343.191,307.878 C344.490,307.652 345.895,307.539 347.407,307.539 C349.833,307.539 351.782,307.675 353.253,307.947 C354.725,308.219 355.951,308.786 356.932,309.648 C357.622,310.245 358.165,311.91 358.563,312.185 C358.961,313.280 359.160,314.324 359.160,315.319 L359.160,324.651 C359.160,325.646 359.222,326.425 359.349,326.989 C359.474,327.553 359.749,328.272 360.174,329.148 L352.577,329.148 C352.272,328.604 352.73,328.189 351.981,327.904 C351.888,327.619 351.795,327.171 351.702,326.561 C350.641,327.583 349.587,328.312 348.540,328.750 C347.108,329.333 345.444,329.625 343.549,329.625 C341.29,329.625 339.117,329.42 337.811,327.874 C336.505,326.707 335.852,325.268 335.852,323.557 C335.852,321.952 336.323,320.632 337.264,319.597 C338.205,318.562 339.942,317.793 342.475,317.289 ZM344.632,324.522 C345.76,324.926 345.729,325.128 346.591,325.128 C347.493,325.128 348.331,324.910 349.107,324.472 C349.882,324.34 350.432,323.500 350.758,322.870 C351.82,322.240 351.245,321.421 351.245,320.413 L351.245,319.119 C350.131,319.517 348.971,319.869 347.765,320.174 C346.120,320.612 345.80,321.43 344.642,321.467 C344.191,321.905 343.966,322.402 343.966,322.960 C343.966,323.596 344.188,324.117 344.632,324.522 ZM373.550,321.321 L377.835,308.17 L385.149,308.17 L389.616,321.354 L393.21,308.17 L400.799,308.17 L393.19,329.148 L385.817,329.148 L381.539,316.433 L377.404,329.148 L370.169,329.148 L362.338,308.17 L370.164,308.17 L373.550,321.321 ZM412.230,305.490 L404.137,305.490 L404.137,299.978 L412.230,299.978 L412.230,305.490 ZM412.230,329.148 L404.137,329.148 L404.137,308.17 L412.230,308.17 L412.230,329.148 Z"></path></svg> 